<?xml version="1.0" encoding="UTF-8"?>
<svg width="20px" height="20px" viewBox="0 0 20 20" version="1.1" xmlns="http://www.w3.org/2000/svg" xmlns:xlink="http://www.w3.org/1999/xlink">
    <!-- Generator: Sketch 43.1 (39012) - http://www.bohemiancoding.com/sketch -->
    <title>Shape</title>
    <desc>Created with Sketch.</desc>
    <defs></defs>
    <g id="App-Sources" stroke="none" stroke-width="1" fill="none" fill-rule="evenodd">
        <g id="Orion-App-/-Requests-/-New---Steps-2" transform="translate(-1073.000000, -805.000000)" fill="#9E9F9E">
            <g id="//-MAIN" transform="translate(365.000000, 122.000000)">
                <g id="::-content" transform="translate(0.000000, 196.000000)">
                    <g id="::-wizard">
                        <g id="::-more" transform="translate(656.000000, 0.000000)">
                            <g id="::-comments" transform="translate(52.000000, 436.000000)">
                                <path d="M10.0010533,71.0147462 C4.48599115,71.0147462 0,66.5255951 0,61.0073731 C0,55.489151 4.48599115,51 10.0010533,51 C15.5150621,51 20,55.489151 20,61.0073731 C20,66.5255951 15.5150621,71.0147462 10.0010533,71.0147462 L10.0010533,71.0147462 Z M10.0010533,53.2245629 C5.71202865,53.2245629 2.22245629,56.7162418 2.22245629,61.0073731 C2.22245629,65.2995576 5.71202865,68.7901833 10.0010533,68.7901833 C14.2890246,68.7901833 17.7775437,65.2995576 17.7775437,61.0073731 C17.7775437,56.7162418 14.2890246,53.2245629 10.0010533,53.2245629 L10.0010533,53.2245629 Z M13.857173,61.9353276 L11.1112281,61.9353276 L11.1112281,64.6812724 C11.1112281,65.2963977 10.614072,65.7935538 10,65.7935538 C9.38698125,65.7935538 8.88877186,65.2963977 8.88877186,64.6812724 L8.88877186,61.9353276 L6.14388035,61.9353276 C5.5298083,61.9353276 5.0326522,61.4371182 5.0326522,60.8230461 C5.0326522,60.2089741 5.5298083,59.7107647 6.14388035,59.7107647 L8.88877186,59.7107647 L8.88877186,56.9637666 C8.88877186,56.3486412 9.38698125,55.8514851 10,55.8514851 C10.614072,55.8514851 11.1112281,56.3486412 11.1112281,56.9637666 L11.1112281,59.7107647 L13.857173,59.7107647 C14.4701917,59.7107647 14.9673478,60.2089741 14.9673478,60.8230461 C14.9673478,61.4371182 14.4701917,61.9353276 13.857173,61.9353276 L13.857173,61.9353276 Z" id="Shape"></path>
                            </g>
                        </g>
                    </g>
                </g>
            </g>
        </g>
    </g>
</svg>