<?xml version="1.0" encoding="UTF-8"?>
<svg width="20px" height="15px" viewBox="0 0 20 15" version="1.1" xmlns="http://www.w3.org/2000/svg" xmlns:xlink="http://www.w3.org/1999/xlink">
    <!-- Generator: Sketch 42 (36781) - http://www.bohemiancoding.com/sketch -->
    <title>Menu Icon</title>
    <desc>Created with Sketch.</desc>
    <defs></defs>
    <g id="App" stroke="none" stroke-width="1" fill="none" fill-rule="evenodd">
        <g id="Orion-App-/-Requests-/-New---alter-Copy" transform="translate(-50.000000, -35.000000)" fill-rule="nonzero" fill="#696969">
            <g id="//-SIDEBAR---expand">
                <path d="M51.25,50 L68.75,50 C69.4403559,50 70,49.4403559 70,48.75 C70,48.0596441 69.4403559,47.5 68.75,47.5 L51.25,47.5 C50.5596441,47.5 50,48.0596441 50,48.75 C50,49.4403559 50.5596441,50 51.25,50 L51.25,50 Z M51.25,43.75 L68.75,43.75 C69.4403559,43.75 70,43.1903559 70,42.5 C70,41.8096441 69.4403559,41.25 68.75,41.25 L51.25,41.25 C50.5596441,41.25 50,41.8096441 50,42.5 C50,43.1903559 50.5596441,43.75 51.25,43.75 L51.25,43.75 Z M51.25,37.5 L68.75,37.5 C69.4403559,37.5 70,36.9403559 70,36.25 C70,35.5596441 69.4403559,35 68.75,35 L51.25,35 C50.5596441,35 50,35.5596441 50,36.25 C50,36.9403559 50.5596441,37.5 51.25,37.5 L51.25,37.5 Z" id="Menu-Icon"></path>
            </g>
        </g>
    </g>
</svg>