<?xml version="1.0" encoding="UTF-8"?>
<svg width="16px" height="16px" viewBox="0 0 16 16" version="1.1" xmlns="http://www.w3.org/2000/svg" xmlns:xlink="http://www.w3.org/1999/xlink">
    <!-- Generator: Sketch 43.1 (39012) - http://www.bohemiancoding.com/sketch -->
    <title>Calendar Icon</title>
    <desc>Created with Sketch.</desc>
    <defs></defs>
    <g id="Symbols" stroke="none" stroke-width="1" fill="none" fill-rule="evenodd">
        <g id="::-formfield-datepicker" transform="translate(-17.000000, -39.000000)" fill="#9E9F9E">
            <g id="::-formfield-input">
                <g id="::-input" transform="translate(0.000000, 27.000000)">
                    <g id="Calendar" transform="translate(17.000000, 12.000000)">
                        <path d="M13.993,16 L2.007,16 C0.901745579,15.9989108 0.00495082946,15.1052439 0,14 L0,4 C-3.25635415e-06,3.46835196 0.211671052,2.95858043 0.588259142,2.5833058 C0.964847232,2.20803117 1.47535522,1.99813923 2.007,2 L4,2 L4,1 C4,0.44771525 4.44771525,0 5,0 C5.55228475,0 6,0.44771525 6,1 L6,2 L10,2 L10,1 C10,0.44771525 10.4477153,0 11,0 C11.5522847,0 12,0.44771525 12,1 L12,2 L13.993,2 C15.0982544,2.00108922 15.9950492,2.89475613 16,4 L16,14 C16.0000033,14.531648 15.7883289,15.0414196 15.4117409,15.4166942 C15.0351528,15.7919688 14.5246448,16.0018608 13.993,16 L13.993,16 Z M14,4 L13.993,4 L12,4 L12,5 C12,5.55228475 11.5522847,6 11,6 C10.4477153,6 10,5.55228475 10,5 L10,4 L6,4 L6,5 C6,5.55228475 5.55228475,6 5,6 C4.44771525,6 4,5.55228475 4,5 L4,4 L2.007,4 C2.00479048,3.998925 2.00220952,3.998925 2,4 L2,14 L2.007,14 L13.993,14 C13.9952095,14.001075 13.9977905,14.001075 14,14 L14,4 L14,4 Z M11,12 C10.4477153,12 10,11.5522847 10,11 C10,10.4477153 10.4477153,10 11,10 C11.5522847,10 12,10.4477153 12,11 C12,11.5522847 11.5522847,12 11,12 L11,12 Z M11,9 C10.4477153,9 10,8.55228475 10,8 C10,7.44771525 10.4477153,7 11,7 C11.5522847,7 12,7.44771525 12,8 C12,8.55228475 11.5522847,9 11,9 L11,9 Z M8,12 C7.44771525,12 7,11.5522847 7,11 C7,10.4477153 7.44771525,10 8,10 C8.55228475,10 9,10.4477153 9,11 C9,11.5522847 8.55228475,12 8,12 L8,12 Z M8,9 C7.44771525,9 7,8.55228475 7,8 C7,7.44771525 7.44771525,7 8,7 C8.55228475,7 9,7.44771525 9,8 C9,8.55228475 8.55228475,9 8,9 L8,9 Z M5,12 C4.44771525,12 4,11.5522847 4,11 C4,10.4477153 4.44771525,10 5,10 C5.55228475,10 6,10.4477153 6,11 C6,11.5522847 5.55228475,12 5,12 L5,12 Z M5,9 C4.44771525,9 4,8.55228475 4,8 C4,7.44771525 4.44771525,7 5,7 C5.55228475,7 6,7.44771525 6,8 C6,8.55228475 5.55228475,9 5,9 L5,9 Z" id="Calendar-Icon"></path>
                    </g>
                </g>
            </g>
        </g>
    </g>
</svg>