<?xml version="1.0" encoding="UTF-8"?>
<svg width="20px" height="17px" viewBox="0 0 20 17" version="1.1" xmlns="http://www.w3.org/2000/svg" xmlns:xlink="http://www.w3.org/1999/xlink">
    <!-- Generator: Sketch 43.1 (39012) - http://www.bohemiancoding.com/sketch -->
    <title>Shape Copy 2</title>
    <desc>Created with Sketch.</desc>
    <defs></defs>
    <g id="App-Sources" stroke="none" stroke-width="1" fill="none" fill-rule="evenodd">
        <g id="Orion-App-/-Requests-/-New---Steps-2" transform="translate(-1073.000000, -581.000000)" fill="#9E9F9E">
            <g id="//-MAIN" transform="translate(365.000000, 122.000000)">
                <g id="::-content" transform="translate(0.000000, 196.000000)">
                    <g id="::-wizard">
                        <g id="::-more" transform="translate(656.000000, 0.000000)">
                            <g id="::-region-info" transform="translate(52.000000, 155.000000)">
                                <g id="::-extreme-services" transform="translate(0.000000, 108.000000)">
                                    <path d="M18.4644987,3.07485088 L13.8464499,3.07485088 L13.8079661,1.80873581 C13.8079661,0.795074081 13.1291129,0 12.2632288,0 L7.73677121,0 C6.87011738,0 6.19126419,0.795074081 6.19126419,1.80873581 L6.14970175,3.07485088 L1.53165288,3.07485088 C0.749663267,3.07485088 0,3.69289975 0,4.49105253 L0,15.4835482 C0,16.281701 0.635751395,16.9305368 1.417741,16.9305368 L18.582259,16.9305368 C19.3634789,16.9305368 20,16.281701 20,15.4835482 L20,4.49105253 C20,3.69289975 19.2464884,3.07485088 18.4644987,3.07485088 L18.4644987,3.07485088 Z M7.67211853,1.80873581 C7.67211853,1.62709255 7.65210698,1.57475467 7.68905138,1.53550125 L12.3071003,1.53550125 C12.3440446,1.57475467 12.3271118,1.62709255 12.3271118,1.80873581 L12.3071003,3.07485088 L7.68905138,3.07485088 L7.67211853,1.80873581 L7.67211853,1.80873581 Z M18.4644987,4.6142005 L18.4644987,9.23224937 L14.6161247,9.23224937 L14.6161247,8.46257456 C14.6161247,8.05618626 14.2551472,7.69289975 13.8464499,7.69289975 C13.4369829,7.69289975 13.0767751,8.05618626 13.0767751,8.46257456 L13.0767751,9.23224937 L6.91937656,9.23224937 L6.91937656,8.46257456 C6.91937656,8.05618626 6.55839908,7.69289975 6.14970175,7.69289975 C5.74100443,7.69289975 5.38002694,8.05618626 5.38002694,8.46257456 L5.38002694,9.23224937 L1.53165288,9.23224937 L1.53165288,4.6142005 L18.4644987,4.6142005 L18.4644987,4.6142005 Z M1.53165288,15.3896479 L1.53165288,10.771599 L5.38002694,10.771599 L5.38002694,10.771599 C5.36232442,11.1849144 5.64633442,12.345584 6.14970175,12.3109486 C6.5576294,12.2824707 6.91937656,11.1779873 6.91937656,10.771599 L6.91937656,10.771599 L13.0767751,10.771599 L13.0767751,10.771599 C13.0767751,11.1779873 13.4377525,12.314797 13.8464499,12.3109486 C14.3613623,12.3063306 14.6361362,11.1772176 14.6161247,10.771599 L14.6161247,10.771599 L18.4644987,10.771599 L18.4644987,15.3896479 L1.53165288,15.3896479 L1.53165288,15.3896479 Z" id="Shape-Copy-2"></path>
                                </g>
                            </g>
                        </g>
                    </g>
                </g>
            </g>
        </g>
    </g>
</svg>