<?xml version="1.0" encoding="UTF-8"?>
<svg width="20px" height="20px" viewBox="0 0 20 20" version="1.1" xmlns="http://www.w3.org/2000/svg" xmlns:xlink="http://www.w3.org/1999/xlink">
    <!-- Generator: Sketch 43.1 (39012) - http://www.bohemiancoding.com/sketch -->
    <title>Shape</title>
    <desc>Created with Sketch.</desc>
    <defs></defs>
    <g id="App-Sources" stroke="none" stroke-width="1" fill="none" fill-rule="evenodd">
        <g id="Orion-App-/-Requests-/-New---Steps-2" transform="translate(-1073.000000, -680.000000)" fill="red">
            <g id="//-MAIN" transform="translate(365.000000, 122.000000)">
                <g id="::-content" transform="translate(0.000000, 196.000000)">
                    <g id="::-wizard">
                        <g id="::-more" transform="translate(656.000000, 0.000000)">
                            <g id="::-work-time" transform="translate(52.000000, 315.000000)">
                                <path d="M9.99952397,66.9809587 C4.48612367,66.9809587 0,62.4986433 0,56.9900033 C0,51.4813634 4.48612367,47 9.99952397,47 C15.5138763,47 20,51.4813634 20,56.9900033 C20,62.4986433 15.5138763,66.9809587 9.99952397,66.9809587 L9.99952397,66.9809587 Z M9.99952397,48.8622364 C5.5134003,48.8622364 1.86414052,52.50864 1.86414052,56.9900033 C1.86414052,61.4723188 5.5134003,65.1177703 9.99952397,65.1177703 C14.4856476,65.1177703 18.1358595,61.4723188 18.1358595,56.9900033 C18.1358595,52.50864 14.4856476,48.8622364 9.99952397,48.8622364 L9.99952397,48.8622364 Z M13.3374589,58.4161946 L9.52920455,58.4161946 C9.46636835,58.4161946 9.82815252,58.3457419 9.76912458,58.3333651 C9.70914457,58.3457419 9.64726044,58.3524063 9.58442424,58.3524063 C9.06935783,58.3524063 8.57714095,57.9782453 8.57714095,57.464131 L8.57714095,52.703813 C8.57714095,52.1896987 9.0703099,51.9383539 9.58442424,51.9383539 C10.0994906,51.9383539 10.5164945,52.3553577 10.5164945,52.8694721 L10.5164945,56.4901699 L13.4821726,56.4901699 C13.996287,56.4901699 14.4142429,56.9071738 14.4142429,57.4212881 C14.4142429,57.9354025 13.8525253,58.4161946 13.3374589,58.4161946 L13.3374589,58.4161946 Z" id="Shape"></path>
                            </g>
                        </g>
                    </g>
                </g>
            </g>
        </g>
    </g>
</svg>