<?xml version="1.0" encoding="UTF-8"?>
<svg width="20px" height="19px" viewBox="0 0 20 19" version="1.1" xmlns="http://www.w3.org/2000/svg" xmlns:xlink="http://www.w3.org/1999/xlink">
    <!-- Generator: Sketch 43.1 (39012) - http://www.bohemiancoding.com/sketch -->
    <title>Group</title>
    <desc>Created with Sketch.</desc>
    <defs></defs>
    <g id="App-Sources" stroke="none" stroke-width="1" fill="none" fill-rule="evenodd">
        <g id="Orion-App-/-Requests-/-New---Steps-2" transform="translate(-1073.000000, -835.000000)" fill="#9E9F9E">
            <g id="//-MAIN" transform="translate(365.000000, 122.000000)">
                <g id="::-content" transform="translate(0.000000, 196.000000)">
                    <g id="::-wizard">
                        <g id="::-more" transform="translate(656.000000, 0.000000)">
                            <g id="::-comments" transform="translate(52.000000, 436.000000)">
                                <g id="Group" transform="translate(0.000000, 81.000000)">
                                    <path d="M10.0062534,17.5111519 C8.69220828,17.5111519 7.20556968,16.7799225 6.5835661,16.6515196 C3.8545879,18.348272 3.47271439,18.348272 3.28678034,18.348272 L3.06249218,18.348272 L2.84570809,18.2140326 C2.40880477,17.9155376 2.38796015,17.3652395 2.50218869,15.8435819 C2.54054279,15.3283028 2.52303331,14.5262017 2.50218869,14.176012 C0.802101138,12.5993246 0,10.6799516 0,8.52795264 C0,3.82540543 4.48659691,0 10.0004169,0 C15.5142369,0 20,3.82540543 20,8.52795264 C20,13.2296661 15.5200734,17.5111519 10.0062534,17.5111519 L10.0062534,17.5111519 Z M10.0062534,1.6692375 C5.28953183,1.6692375 1.66840372,4.43490224 1.66840372,8.33951724 C1.66840372,10.1363238 2.68562138,12.0256806 4.16975862,13.342227 C4.5758119,13.7032559 4.30483178,14.051778 4.16975862,15.8435819 C4.1597532,15.9769875 3.97465294,16.3730354 3.96464752,16.5197815 C4.55746863,16.1904365 5.36457248,15.7093426 6.06578563,15.2691041 L6.32092383,15.1098512 L6.67111352,15.009797 C6.68945679,15.0139659 8.49626881,15.8435819 10.0062534,15.8435819 C14.7246425,15.8435819 18.3441031,12.2441322 18.3441031,8.33951724 C18.3441031,4.43490224 14.7229749,1.6692375 10.0062534,1.6692375 L10.0062534,1.6692375 Z" id="Shape"></path>
                                    <path d="M13.8990909,10.2727273 C13.2909091,10.2727273 12.7981818,9.76409091 12.7981818,9.13636364 C12.7981818,8.50863636 13.2909091,8 13.8990909,8 C14.5072727,8 15,8.50863636 15,9.13636364 C15,9.76409091 14.5072727,10.2727273 13.8990909,10.2727273 L13.8990909,10.2727273 Z M10,10.2727273 C9.39590909,10.2727273 8.90636364,9.76409091 8.90636364,9.13636364 C8.90636364,8.50863636 9.39590909,8 10,8 C10.6040909,8 11.0936364,8.50863636 11.0936364,9.13636364 C11.0936364,9.76409091 10.6040909,10.2727273 10,10.2727273 L10,10.2727273 Z M6.10090909,10.2727273 C5.49272727,10.2727273 5,9.76409091 5,9.13636364 C5,8.50863636 5.49272727,8 6.10090909,8 C6.70863636,8 7.20181818,8.50863636 7.20181818,9.13636364 C7.20181818,9.76409091 6.70863636,10.2727273 6.10090909,10.2727273 L6.10090909,10.2727273 Z" id="Shape"></path>
                                </g>
                            </g>
                        </g>
                    </g>
                </g>
            </g>
        </g>
    </g>
</svg>