<?xml version="1.0" encoding="UTF-8"?>
<svg width="16px" height="16px" viewBox="0 0 16 16" version="1.1" xmlns="http://www.w3.org/2000/svg" xmlns:xlink="http://www.w3.org/1999/xlink">
    <!-- Generator: Sketch 42 (36781) - http://www.bohemiancoding.com/sketch -->
    <title>Schedule Icon</title>
    <desc>Created with Sketch.</desc>
    <defs></defs>
    <g id="ARM:-Expert-/-Role:-Expert-(Sources)" stroke="none" stroke-width="1" fill="none" fill-rule="evenodd">
        <g id="ARM-Expert-/-Queue-Tab-(Search-Form-Extended)" transform="translate(-248.000000, -309.000000)" fill="#7F8FA4">
            <g id="//-TAB---QUEUE" transform="translate(0.000000, 214.000000)">
                <g id="::-search-form" transform="translate(151.000000, 30.000000)">
                    <g id="::-main-filters" transform="translate(84.000000, 26.000000)">
                        <g id="::-date">
                            <g id="::-datepicket-input" transform="translate(0.000000, 29.000000)">
                                <path d="M17,19 L19,19 L19,17 L17,17 L17,19 Z M17,22 L19,22 L19,20 L17,20 L17,22 Z M20,19 L22,19 L22,17 L20,17 L20,19 Z M20,22 L22,22 L22,20 L20,20 L20,22 Z M23,19 L25,19 L25,17 L23,17 L23,19 Z M23,22 L25,22 L25,20 L23,20 L23,22 Z M27,16 C27,15.448 26.552,15 26,15 L16,15 C15.448,15 15,15.448 15,16 L15,23 C15,23.552 15.448,24 16,24 L26,24 C26.552,24 27,23.552 27,23 L27,16 Z M27,26 L15,26 C13.896,26 13,25.105 13,24 L13,12 C13,10.895 13.896,10 15,10 L17,10 L17,11 C17,11.552 17.448,12 18,12 C18.552,12 19,11.552 19,11 L19,10 L23,10 L23,11 C23,11.552 23.448,12 24,12 C24.552,12 25,11.552 25,11 L25,10 L27,10 C28.105,10 29,10.895 29,12 L29,24 C29,25.105 28.105,26 27,26 L27,26 Z" id="Schedule-Icon"></path>
                            </g>
                        </g>
                    </g>
                </g>
            </g>
        </g>
    </g>
</svg>