<?xml version="1.0" encoding="UTF-8"?>
<svg width="20px" height="18px" viewBox="0 0 20 18" version="1.1" xmlns="http://www.w3.org/2000/svg" xmlns:xlink="http://www.w3.org/1999/xlink">
    <!-- Generator: Sketch 42 (36781) - http://www.bohemiancoding.com/sketch -->
    <title>Inbox Icon</title>
    <desc>Created with Sketch.</desc>
    <defs></defs>
    <g id="App" stroke="none" stroke-width="1" fill="none" fill-rule="evenodd">
        <g id="Orion-App-/-Requests-/-New---Step-1.1" transform="translate(-50.000000, -131.000000)" fill="#fff">
            <g id="//-SIDEBAR---full" transform="translate(0.000000, 80.000000)">
                <g id="::-menu" transform="translate(50.000000, 50.000000)">
                    <g id="::-requests">
                        <g id="::-icon-inbox" transform="translate(0.000000, 1.000000)">
                            <path d="M17.4912498,17.4999994 L2.50875024,17.4999994 C1.12900726,17.5048425 0.00620070868,16.3909871 3.26848722e-07,15.0112495 L3.26848722e-07,8.74999971 C-9.67447447e-05,8.61576415 0.0214289483,8.48238927 0.0637503248,8.35499973 L2.36750025,1.44374995 C2.67331742,0.587923504 3.47875769,0.0122530125 4.38750018,0 L15.6124998,0 C16.5206516,0.0140504753 17.3251732,0.589064348 17.6324998,1.44374995 L19.9362497,8.35499973 C19.9785711,8.48238927 20.0000967,8.61576415 19.9999997,8.74999971 L19.9999997,15.0112495 C19.9937993,16.3909871 18.8709927,17.5048425 17.4912498,17.4999994 L17.4912498,17.4999994 Z M2.50875024,14.9999995 L17.4912498,14.9999995 C17.5012498,14.9999995 17.4999998,14.9999995 17.4999998,15.0112495 L17.4999998,9.99999967 L14.3212499,9.99999967 C13.431848,11.5463853 11.7839126,12.4996378 10,12.4996378 C8.21608743,12.4996378 6.56815199,11.5463853 5.67875014,9.99999967 L2.50000025,9.99999967 L2.50000025,15.0112495 C2.50000025,14.9999995 2.50000025,14.9999995 2.50875024,14.9999995 L2.50875024,14.9999995 Z M15.3487498,2.49999992 L4.65125017,2.49999992 L2.98375023,7.49999975 L6.46375012,7.49999975 C6.61459753,7.50254219 6.76371165,7.53261919 6.9037501,7.58874975 C6.94676786,7.60676364 6.98852833,7.62764388 7.0287501,7.65124975 C7.11896601,7.69656183 7.20298703,7.75327602 7.27875009,7.81999974 C7.31656432,7.85159054 7.35207151,7.88584454 7.38500009,7.92249974 C7.45401801,8.00101986 7.51281873,8.08796092 7.56000008,8.18124973 C7.58238252,8.21850328 7.6028264,8.25688771 7.62125008,8.29624973 C7.62125008,8.30999973 7.63750008,8.31999973 7.64250008,8.33374973 C7.99525489,9.33331419 8.94001648,10.0017679 10,10.0017679 C11.0599835,10.0017679 12.0047451,9.33331419 12.3574999,8.33374973 C12.3574999,8.31999973 12.3724999,8.30999973 12.3787499,8.29624973 C12.3971736,8.25688771 12.4176175,8.21850328 12.4399999,8.18124973 C12.4871813,8.08796092 12.545982,8.00101986 12.6149999,7.92249974 C12.6479285,7.88584454 12.6834357,7.85159054 12.7212499,7.81999974 C12.797013,7.75327602 12.881034,7.69656183 12.9712499,7.65124975 C13.0117402,7.62814237 13.0534698,7.60727758 13.0962499,7.58874975 C13.2362883,7.53261919 13.3854025,7.50254219 13.5362499,7.49999975 L17.0162498,7.49999975 L15.3487498,2.49999992 Z" id="Inbox-Icon"></path>
                        </g>
                    </g>
                </g>
            </g>
        </g>
    </g>
</svg>
