<?xml version="1.0" encoding="UTF-8"?>
<svg width="16px" height="20px" viewBox="0 0 16 20" version="1.1" xmlns="http://www.w3.org/2000/svg" xmlns:xlink="http://www.w3.org/1999/xlink">
    <!-- Generator: Sketch 42 (36781) - http://www.bohemiancoding.com/sketch -->
    <title>Ribbon Icon</title>
    <desc>Created with Sketch.</desc>
    <defs></defs>
    <g id="App" stroke="none" stroke-width="1" fill="none" fill-rule="evenodd">
        <g id="Orion-App-/-Requests-/-New---Steps-2" transform="translate(-52.000000, -249.000000)" fill="#9E9F9E">
            <g id="//-SIDEBAR---full" transform="translate(0.000000, 80.000000)">
                <g id="::-menu" transform="translate(50.000000, 50.000000)">
                    <g id="::-docs" transform="translate(2.000000, 119.000000)">
                        <g id="::-icon-ribbon">
                            <path d="M12.9963304,2.49375 L13.0175645,17.0325 L8.64582515,14.42625 C8.25181743,14.1912257 7.76078684,14.1912257 7.36677911,14.42625 L3.01002855,17.05125 L3.01002855,2.49375 L13.0025757,2.49375 L12.9963304,2.49375 L12.9963304,2.49375 L12.9963304,2.49375 Z M0.505646415,17.9675 C0.449298769,18.6951138 0.818258844,19.3897608 1.45244465,19.7500522 C2.08663045,20.1103435 2.87176046,20.0713539 3.46718758,19.65 L8.00005679,16.95625 L12.5279297,19.65 C13.1238277,20.0722357 13.9098824,20.1117982 14.5451057,19.7515252 C15.180329,19.3912523 15.5502769,18.6960519 15.4944672,17.9675 L15.4944672,2.5 C15.4944672,1.11928813 14.3760132,0 12.9963304,0 L3.00378321,0 C1.62410035,0 0.505646415,1.11928813 0.505646415,2.5 L0.505646415,17.9675 L0.505646415,17.9675 L0.505646415,17.9675 L0.505646415,17.9675 Z" id="Ribbon-Icon"></path>
                        </g>
                    </g>
                </g>
            </g>
        </g>
    </g>
</svg>
