<svg xmlns="http://www.w3.org/2000/svg" viewBox="0 0 950.281 950.281"><g fill="#fff"><path d="M884.2 222.6L661.64 0H66.07v950.28H884.2v-727.7zM681.55 116.07l86.6 86.6h-86.6v-86.6zm134.67 766.2H134.08V68h479.47v202.67H816.2v611.6z" data-original="#000000" class="active-path" data-old_color="#000000"/><path d="M429.23 370.4H759.2v68H429.24zM251.47 540.36l-26.72-26.72-48.08 48.08 74.8 74.8 123.58-123.56-48.1-48.1m-75.48 244.88l-26.72-26.72-48.08 48.1 74.8 74.8 123.58-123.58-48.1-48.08m-75.48-263.28l-26.72-26.72-48.08 48.08 74.8 74.8L375.05 343.6l-48.1-48.1m102.28 244.38H759.2v68H429.24zm0 169.5H759.2v68H429.24z" data-original="#000000" class="active-path" data-old_color="#000000"/></g></svg>
