<?xml version="1.0" encoding="UTF-8"?>
<svg width="16px" height="12px" viewBox="0 0 16 12" version="1.1" xmlns="http://www.w3.org/2000/svg" xmlns:xlink="http://www.w3.org/1999/xlink">
    <!-- Generator: Sketch 43.1 (39012) - http://www.bohemiancoding.com/sketch -->
    <title>Shape</title>
    <desc>Created with Sketch.</desc>
    <defs></defs>
    <g id="Guidelines" stroke="none" stroke-width="1" fill="none" fill-rule="evenodd">
        <g id="UI-Library" transform="translate(-311.000000, -1726.000000)" fill="#9E9F9E">
            <path d="M324.919271,1726 C326.066855,1726 327,1726.92352 327,1728.05927 L327,1735.94073 C327,1737.07648 326.066855,1738 324.919271,1738 L313.081566,1738 C311.933983,1738 311,1737.07648 311,1735.94073 L311,1728.05927 C311,1726.92352 311.933983,1726 313.081566,1726 L324.919271,1726 Z M319.000343,1732 L323,1728 L315,1728 L319.000343,1732 Z M313.468885,1736 L324.531115,1736 C324.789432,1736 325,1735.80869 325,1735.57463 L325,1729.08549 L319.595695,1734.0762 C319.455577,1734.18973 319.280235,1734.24509 319.106458,1734.24509 C319.088454,1734.24509 319.07045,1734.24088 319.053229,1734.24018 C319.035225,1734.24088 319.018004,1734.24509 319,1734.24509 C318.82544,1734.24509 318.650881,1734.18973 318.50998,1734.0762 L313,1729 L313,1735.57463 C313,1735.80869 313.209785,1736 313.468885,1736 Z" id="Shape"></path>
        </g>
    </g>
</svg>