<svg xmlns="http://www.w3.org/2000/svg" viewBox="0 0 512 512"><path fill="#fff" d="M449 193.2V0H63v193.2L0 233.23V512h512V233.23l-63-40.03zm0 35.55l18.45 11.72L449 250.5v-21.75zM93 174.13V30h326v236.83L256 355.5 93 266.84v-92.7zm-30 54.62v21.75l-18.45-10.03L63 228.75zM30 266.7l33 17.96 114.23 62.15L30 465.65v-198.9zM57.48 482l148.3-119.67L256 389.66l50.23-27.33L454.53 482H57.47zM482 465.62l-147.23-118.8L449 284.65l33-17.95v198.92z" data-original="#000000" class="active-path" data-old_color="#000000"/><path fill="#fff" d="M163.02 73.03v-25h-30v25h-25v30h25v25h30v-25h25v-30m30.03 0H404v30H218.04zm0 50.97H404v30H218.04zm-110.03 50.96h295.96v30H108.02zm0 50.97h295.96v30H108.02z" data-original="#000000" class="active-path" data-old_color="#000000"/></svg>
