<?xml version="1.0" encoding="UTF-8"?>
<svg width="16px" height="20px" viewBox="0 0 16 20" version="1.1" xmlns="http://www.w3.org/2000/svg" xmlns:xlink="http://www.w3.org/1999/xlink">
    <!-- Generator: Sketch 43.1 (39012) - http://www.bohemiancoding.com/sketch -->
    <title>Shape</title>
    <desc>Created with Sketch.</desc>
    <defs></defs>
    <g id="Guidelines" stroke="none" stroke-width="1" fill="none" fill-rule="evenodd">
        <g id="UI-Library" transform="translate(-219.000000, -1652.000000)" stroke-width="2" stroke="#979797">
            <g id="::-formfield-datepicker-copy" transform="translate(202.000000, 1615.000000)">
                <g id="::-formfield-input">
                    <g id="::-input" transform="translate(0.000000, 27.000000)">
                        <g id="Calendar" transform="translate(17.000000, 12.000000)">
                            <path d="M12.9128,5.12128636 L12.9128,3.99542857 C12.9128,1.23971327 10.6109724,-1 7.8256,-1 C5.04087465,-1 2.7392,1.23986592 2.7392,3.99542857 L2.7392,5.48469277 C1.62862551,6.73693183 1,8.35099601 1,10.0617143 C1,13.8956538 4.13650662,17 8,17 C11.8634934,17 15,13.8956538 15,10.0617143 C15,8.17512785 14.2342805,6.41099054 12.9128,5.12128636 Z M7.91348877,9.35720069 L7.74886409,9.28361815 C7.61011366,9.22160066 7.5216,9.08882288 7.5216,8.94247619 C7.5216,8.73688999 7.69460132,8.56571429 7.9128,8.56571429 C8.1314345,8.56571429 8.304,8.73652661 8.304,8.94247619 C8.304,9.08919196 8.21582438,9.22158778 8.07633515,9.2841558 L7.91348877,9.35720069 Z M7.7933465,11.3855238 L6.6952,11.3855238 L7.65435285,12.6684121 L7.9129602,11.7915857 L8.0327223,11.3855238 L8.29995285,10.4794598 L8.54738223,9.64053299 L7.91348877,9.35720069 L7.27961644,9.64152469 L7.52635208,10.4791372 L7.7933465,11.3855238 L7.9129602,11.7915857 L8.17115208,12.6680896 L9.1304,11.3855238 L8.0327223,11.3855238 L7.7933465,11.3855238 Z M9.36249607,3.27697605 C8.93736421,3.17576541 8.47947671,3.12266667 8,3.12266667 C7.34381777,3.12266667 6.72362552,3.18853327 6.14224336,3.32538462 C6.4026844,2.64413734 6.95549941,2.36838095 7.9128,2.36838095 C8.71757823,2.36838095 9.1543642,2.60186344 9.36249607,3.27697605 Z" id="Shape"></path>
                        </g>
                    </g>
                </g>
            </g>
        </g>
    </g>
</svg>