<?xml version="1.0" encoding="UTF-8"?>
<svg width="12px" height="16px" viewBox="0 0 12 16" version="1.1" xmlns="http://www.w3.org/2000/svg" xmlns:xlink="http://www.w3.org/1999/xlink">
    <!-- Generator: Sketch 43.1 (39012) - http://www.bohemiancoding.com/sketch -->
    <title>Shape</title>
    <desc>Created with Sketch.</desc>
    <defs></defs>
    <g id="Guidelines" stroke="none" stroke-width="1" fill="none" fill-rule="evenodd">
        <g id="UI-Library" transform="translate(-221.000000, -1654.000000)" fill="#9E9F9E">
            <g id="::-formfield-datepicker-copy" transform="translate(202.000000, 1615.000000)">
                <g id="::-formfield-input">
                    <g id="::-input" transform="translate(0.000000, 27.000000)">
                        <g id="Calendar" transform="translate(17.000000, 12.000000)">
                            <path d="M11.9128,5.56190476 L11.9128,3.99542857 C11.9128,1.78895238 10.0552,0 7.8256,0 C5.5968,0 3.7392,1.78895238 3.7392,3.99542857 L3.7392,5.88114286 C2.664,6.95390476 2,8.4312381 2,10.0617143 C2,13.3409524 4.6864,16 8,16 C11.3136,16 14,13.3409524 14,10.0617143 C14,8.26209524 13.1904,6.65066667 11.9128,5.56190476 L11.9128,5.56190476 Z M9.1304,12.3855238 L6.6952,12.3855238 L7.3408,10.1965714 C6.8584,9.98095238 6.5216,9.50095238 6.5216,8.94247619 C6.5216,8.18209524 7.1448,7.56571429 7.9128,7.56571429 C8.6816,7.56571429 9.304,8.18209524 9.304,8.94247619 C9.304,9.50095238 8.968,9.98019048 8.4856,10.1965714 L9.1304,12.3855238 L9.1304,12.3855238 Z M10.5216,4.928 C10,4.46704762 9.1304,4.12266667 8,4.12266667 C6.8888,4.12266667 5.8488,4.33371429 4.9568,4.85485714 L4.9568,4.64 C4.9568,2.54247619 5.8256,1.36838095 7.9128,1.36838095 C10,1.36838095 10.5216,2.71542857 10.5216,4.81142857 L10.5216,4.928 L10.5216,4.928 Z" id="Shape"></path>
                        </g>
                    </g>
                </g>
            </g>
        </g>
    </g>
</svg>