<?xml version="1.0" encoding="UTF-8"?>
<svg width="16px" height="20px" viewBox="0 0 16 20" version="1.1" xmlns="http://www.w3.org/2000/svg" xmlns:xlink="http://www.w3.org/1999/xlink">
    <!-- Generator: Sketch 43.1 (39012) - http://www.bohemiancoding.com/sketch -->
    <title>Shape</title>
    <desc>Created with Sketch.</desc>
    <defs></defs>
    <g id="Guidelines" stroke="none" stroke-width="1" fill="none" fill-rule="evenodd">
        <g id="UI-Library" transform="translate(-167.000000, -1629.000000)" fill="#9E9F9E">
            <path d="M182.175294,1649 L167.824706,1649 C167.368807,1649 167,1648.64531 167,1648.20695 L167,1637.21609 C167,1636.77864 167.437236,1636.2757 167.893135,1636.2757 L170.559209,1636.2757 L170.559209,1632.63785 C170.559209,1630.38238 172.657409,1629 175.002666,1629 C177.347923,1629 179.446123,1630.38238 179.446123,1632.63785 L179.446123,1636.2757 L182.112197,1636.2757 C182.568096,1636.2757 183,1636.77864 183,1637.21609 L183,1648.20695 C183,1648.64531 182.630304,1649 182.175294,1649 L182.175294,1649 Z M177.603866,1633.08713 C177.603866,1631.70565 176.438791,1630.81893 175.002666,1630.81893 C173.566541,1630.81893 172.395246,1631.70565 172.395246,1633.08713 L172.349922,1636.2757 L177.603866,1636.2757 L177.603866,1633.08713 L177.603866,1633.08713 Z M181.223506,1638.09463 L168.781826,1638.09463 L168.781826,1647.18926 L181.223506,1647.18926 L181.223506,1638.09463 L181.223506,1638.09463 Z M174.880915,1640.44104 C175.336814,1640.44104 175.891357,1640.38557 175.891357,1640.82302 L175.891357,1644.46087 C175.891357,1644.89832 175.336814,1645.06021 174.880915,1645.06021 C174.425905,1645.06021 174.05621,1644.70461 174.05621,1644.26715 L174.05621,1641.2341 C174.05621,1640.79573 174.425905,1640.44104 174.880915,1640.44104 L174.880915,1640.44104 Z" id="Shape"></path>
        </g>
    </g>
</svg>