<?xml version="1.0" encoding="UTF-8"?>
<svg width="14px" height="18px" viewBox="0 0 14 18" version="1.1" xmlns="http://www.w3.org/2000/svg" xmlns:xlink="http://www.w3.org/1999/xlink">
    <!-- Generator: Sketch 43.1 (39012) - http://www.bohemiancoding.com/sketch -->
    <title>Combined Shape</title>
    <desc>Created with Sketch.</desc>
    <defs></defs>
    <g id="App-Final" stroke="none" stroke-width="1" fill="none" fill-rule="evenodd">
        <g id="App-/-Tickets-/-New" transform="translate(-939.000000, -31.000000)" stroke="#FFFFFF" stroke-width="2" fill-rule="nonzero">
            <path d="M949.297904,41.8888494 C949.19761,41.7306603 948.994348,41.6836871 948.836553,41.7828144 L948.738265,41.8484387 C948.470146,42.0276966 947.700893,42.5416386 947.626342,42.5886118 C947.60762,42.6013913 947.58823,42.610026 947.5665,42.6162431 C947.038955,42.7661428 945.63852,41.34624 944.815443,39.5377722 C944.321329,38.4497903 944.321663,37.7921656 944.520913,37.6477921 L945.736473,36.8343961 C945.812028,36.7836236 945.864849,36.7041836 945.882902,36.6136912 C945.901958,36.5231987 945.885577,36.4285616 945.836099,36.3505032 L943.205394,32.1591822 C943.156919,32.0811238 943.079693,32.026552 942.991768,32.0075555 C942.90351,31.9882136 942.812577,32.0065193 942.736688,32.056601 L942.547133,32.1837049 C942.204463,32.41339 941.519791,32.8727602 941.501738,32.8851943 L941.45928,32.9148979 C939.930469,33.9856103 938.689502,36.0296348 942.680858,42.3910481 C945.35402,46.6507565 947.597257,48.4543888 949.538943,47.90349 L949.539612,47.90349 C949.962851,47.7832939 950.290812,47.5746777 950.529177,47.4227056 L950.603728,47.3757324 C950.654878,47.343611 951.825975,46.5630272 951.857734,46.5395406 C952.005835,46.430397 952.043946,46.2203992 951.945324,46.0632462 L949.297904,41.8888494 Z" id="Combined-Shape"></path>
        </g>
    </g>
</svg>