<?xml version="1.0" encoding="UTF-8"?>
<svg width="15px" height="19px" viewBox="0 0 15 19" version="1.1" xmlns="http://www.w3.org/2000/svg" xmlns:xlink="http://www.w3.org/1999/xlink">
    <!-- Generator: Sketch 43.1 (39012) - http://www.bohemiancoding.com/sketch -->
    <title>Combined Shape</title>
    <desc>Created with Sketch.</desc>
    <defs></defs>
    <g id="Guidelines" stroke="none" stroke-width="1" fill="none" fill-rule="evenodd">
        <g id="UI-Library" transform="translate(-221.000000, -1699.000000)" stroke="#9E9F9E" stroke-width="2" fill-rule="nonzero">
            <path d="M232.072729,1710.12227 C231.964078,1709.96408 231.743877,1709.91711 231.572932,1710.01623 L231.466454,1710.08186 C231.175992,1710.26112 230.342634,1710.77506 230.26187,1710.82203 C230.241589,1710.83481 230.220583,1710.84344 230.197041,1710.84966 C229.625534,1710.99956 228.108397,1709.57966 227.21673,1707.77119 C226.68144,1706.68321 226.681802,1706.02558 226.897656,1705.88121 L228.214513,1705.06781 C228.296364,1705.01704 228.353587,1704.9376 228.373144,1704.84711 C228.393788,1704.75662 228.376042,1704.66198 228.32244,1704.58392 L225.47251,1700.3926 C225.419995,1700.31454 225.336334,1700.25997 225.241082,1700.24097 C225.145469,1700.22163 225.046958,1700.23994 224.964745,1700.29002 L224.759394,1700.41712 C224.388168,1700.64681 223.64644,1701.10618 223.626883,1701.11861 L223.580887,1701.14832 C221.924675,1702.21903 220.580293,1704.26305 224.904263,1710.62447 C227.800188,1714.88418 230.230361,1716.68781 232.333855,1716.13691 L232.334579,1716.13691 C232.793089,1716.01671 233.148379,1715.8081 233.406608,1715.65612 L233.487372,1715.60915 C233.542785,1715.57703 234.811472,1714.79645 234.845879,1714.77296 C235.006321,1714.66382 235.047608,1714.45382 234.940768,1714.29667 L232.072729,1710.12227 Z" id="Combined-Shape"></path>
        </g>
    </g>
</svg>