<svg xmlns="http://www.w3.org/2000/svg" viewBox="0 0 25.975 25.975"><g fill="#fff"><path d="M9 14h5.76c1.17-1.02 2.63-1.7 4.24-1.9V12H9v2zm0-6h10v2H9z" data-original="#030104" class="active-path" data-old_color="#030104"/><path d="M12.3 22H3c-.55 0-1-.45-1-1V4h20v8.3c.7.17 1.38.45 2 .8V3c0-1.66-1.34-3-3-3H3C1.34 0 0 1.34 0 3v18c0 1.66 1.34 3 3 3h10.1c-.35-.62-.63-1.3-.8-2z" data-original="#030104" class="active-path" data-old_color="#030104"/><path d="M9 16v2h3.3c.17-.7.45-1.38.8-2H9zm-4-4h2v2H5zm0-4h2v2H5zm0 8h2v2H5z" data-original="#030104" class="active-path" data-old_color="#030104"/></g><path fill="#fff" d="M20 14.03c-3.3 0-5.97 2.67-5.97 5.97s2.67 5.97 5.97 5.97 5.97-2.67 5.97-5.97-2.67-5.97-5.97-5.97zm3.54 8.1l-1.42 1.4L20 21.4l-2.12 2.15-1.4-1.42 2.1-2.12-2.1-2.1 1.4-1.4L20 18.6l2.12-2.1 1.4 1.4-2.1 2.1 2.1 2.13z" data-original="#030104" class="active-path" data-old_color="#030104"/></svg>
