<?xml version="1.0" encoding="UTF-8"?>
<svg width="17px" height="20px" viewBox="0 0 17 20" version="1.1" xmlns="http://www.w3.org/2000/svg" xmlns:xlink="http://www.w3.org/1999/xlink">
    <!-- Generator: Sketch 42 (36781) - http://www.bohemiancoding.com/sketch -->
    <title>Document Text Icon</title>
    <desc>Created with Sketch.</desc>
    <defs></defs>
    <g id="App" stroke="none" stroke-width="1" fill="none" fill-rule="evenodd">
        <g id="Orion-App-/-Requests-/-New---Steps-2" transform="translate(-51.000000, -189.000000)" fill="#9E9F9E">
            <g id="//-SIDEBAR---full" transform="translate(0.000000, 80.000000)">
                <g id="::-menu" transform="translate(50.000000, 50.000000)">
                    <g id="::-reports" transform="translate(1.000000, 59.000000)">
                        <g id="::-icon-report">
                            <path d="M14.0000153,20 L2.75001533,20 C2.08545529,20.0000041 1.44824087,19.7354112 0.979147583,19.2646761 C0.510054298,18.793941 0.247689374,18.155806 0.250015334,17.49125 L0.250015334,2.50875 C0.249320009,1.12633181 1.36760316,0.00413467566 2.75001533,0 L10.8750153,0 C11.6026073,0.0216665377 12.2967552,0.310449857 12.8250153,0.81125 L15.6875153,3.67125 C16.1862499,4.20296364 16.4749707,4.89767035 16.5000153,5.62625 L16.5000153,17.5 C16.5020153,18.1636523 16.2392655,18.8006998 15.7699903,19.269975 C15.3007151,19.7392502 14.6636677,20.002 14.0000153,20 L14.0000153,20 L14.0000153,20 Z M11.5000153,3.0175 L11.5000153,5 L13.4875153,5 L11.5000153,3.0175 L11.5000153,3.0175 Z M14.0000153,7.5 L11.5000153,7.5 C10.1193035,7.5 9.00001533,6.38071187 9.00001533,5 L9.00001533,2.5 C6.60001533,2.5 2.75001533,2.5 2.75001533,2.5075 L2.75001533,17.5 L14.0000153,17.5 L14.0000153,7.5 L14.0000153,7.5 L14.0000153,7.5 Z M5.25001533,5 L6.50001533,5 C7.19037127,5 7.75001533,5.55964406 7.75001533,6.25 C7.75001533,6.94035594 7.19037127,7.5 6.50001533,7.5 L5.25001533,7.5 C4.5596594,7.5 4.00001533,6.94035594 4.00001533,6.25 C4.00001533,5.55964406 4.5596594,5 5.25001533,5 L5.25001533,5 L5.25001533,5 Z M5.25001533,8.75 L11.5000153,8.75 C12.1903713,8.75 12.7500153,9.30964406 12.7500153,10 C12.7500153,10.6903559 12.1903713,11.25 11.5000153,11.25 L5.25001533,11.25 C4.5596594,11.25 4.00001533,10.6903559 4.00001533,10 C4.00001533,9.30964406 4.5596594,8.75 5.25001533,8.75 L5.25001533,8.75 L5.25001533,8.75 Z M5.25001533,12.5 L11.5000153,12.5 C12.1903713,12.5 12.7500153,13.0596441 12.7500153,13.75 C12.7500153,14.4403559 12.1903713,15 11.5000153,15 L5.25001533,15 C4.5596594,15 4.00001533,14.4403559 4.00001533,13.75 C4.00001533,13.0596441 4.5596594,12.5 5.25001533,12.5 L5.25001533,12.5 L5.25001533,12.5 Z" id="Document-Text-Icon"></path>
                        </g>
                    </g>
                </g>
            </g>
        </g>
    </g>
</svg>