<?xml version="1.0" encoding="UTF-8"?>
<svg width="16px" height="16px" viewBox="0 0 16 16" version="1.1" xmlns="http://www.w3.org/2000/svg" xmlns:xlink="http://www.w3.org/1999/xlink">
    <!-- Generator: Sketch 43.1 (39012) - http://www.bohemiancoding.com/sketch -->
    <title>Shape</title>
    <desc>Created with Sketch.</desc>
    <defs></defs>
    <g id="App-Sources" stroke="none" stroke-width="1" fill="none" fill-rule="evenodd">
        <g id="Orion-App-/-Requests-/-New---Steps-2-Copy" transform="translate(-611.000000, -579.000000)" fill="#9E9F9E">
            <path d="M625.843852,593.324283 L622.726007,590.071758 C623.603111,588.906774 624.130889,587.44297 624.130889,585.850377 C624.130889,582.070916 621.183919,578.996 617.561865,578.996 C613.93897,578.996 610.992,582.070916 610.992,585.850377 C610.992,589.628997 614.109845,592.46738 617.732741,592.46738 C619.151933,592.46738 620.293347,592.22664 621.369104,591.425293 L624.516411,594.708963 C624.699912,594.90004 624.939811,594.996 625.180552,594.996 C625.420451,594.996 625.66035,594.90004 625.843852,594.708963 C626.210013,594.326808 626.210013,593.707279 625.843852,593.324283 L625.843852,593.324283 Z M612.868263,585.850377 C612.868263,583.150882 614.974323,580.954754 617.561865,580.954754 C620.149407,580.954754 622.253785,583.150882 622.253785,585.850377 C622.253785,588.549872 620.320283,590.783879 617.732741,590.783879 C615.145199,590.783879 612.868263,588.549872 612.868263,585.850377 L612.868263,585.850377 Z" id="Shape"></path>
        </g>
    </g>
</svg>