<?xml version="1.0" encoding="UTF-8"?>
<svg width="20px" height="20px" viewBox="0 0 20 20" version="1.1" xmlns="http://www.w3.org/2000/svg" xmlns:xlink="http://www.w3.org/1999/xlink">
    <!-- Generator: Sketch 42 (36781) - http://www.bohemiancoding.com/sketch -->
    <title>Settings #1 Icon</title>
    <desc>Created with Sketch.</desc>
    <defs></defs>
    <g id="App" stroke="none" stroke-width="1" fill="none" fill-rule="evenodd">
        <g id="Orion-App-/-Requests-/-New---Steps-2" transform="translate(-50.000000, -368.000000)" fill="#9E9F9E">
            <g id="//-SIDEBAR---full" transform="translate(0.000000, 80.000000)">
                <g id="::-menu" transform="translate(50.000000, 50.000000)">
                    <g id="::-administrate" transform="translate(0.000000, 238.000000)">
                        <g id="::-icon-settings">
                            <path d="M19.9499134,12.7196988 L18.9590756,15.1092549 C18.8241532,15.4346407 18.4512011,15.5892107 18.1271119,15.4549308 L17.0005212,14.9881504 C16.484858,14.7744956 15.7416067,14.9265096 15.3512929,15.3168134 C14.9217695,15.7463257 14.774163,16.4833919 14.9882786,16.999892 L15.4550709,18.1259116 C15.5895487,18.4503056 15.4422396,18.8197651 15.1100174,18.9577816 L12.7229603,19.9494474 C12.3979147,20.0844825 12.0250761,19.9298736 11.8906367,19.6051689 L11.4233022,18.4764386 C11.2093938,17.9597961 10.5761487,17.5409746 10.024279,17.5409746 C9.41697023,17.5409746 8.79106203,17.9586951 8.57669778,18.4764386 L8.10936326,19.6051689 C7.97472927,19.9303438 7.60898694,20.0877388 7.27640848,19.9500786 L4.88679101,18.9609731 C4.56139678,18.8262866 4.40669604,18.4536592 4.54082343,18.1297343 L5.00707365,17.0037148 C5.22048575,16.488313 5.06826668,15.7452819 4.67795291,15.3549782 C4.24842951,14.9254658 3.51114376,14.7778631 2.99438168,14.9919731 L1.86779103,15.4587535 C1.54323252,15.5932278 1.17409512,15.4453726 1.03666894,15.1124464 L0.0492448682,12.7203301 C-0.0852126767,12.3945956 0.0698712701,12.0212013 0.394584329,11.8867654 L1.52334358,11.4194429 C2.03999937,11.20554 2.45883163,10.5740079 2.45883163,10.0241888 C2.45883163,9.41913655 2.04110039,8.79491583 1.52334358,8.58055709 L0.394584329,8.11323457 C0.0694010664,7.97860404 -0.0878147348,7.61287111 0.0500865516,7.28030119 L1.04092437,4.89074512 C1.17584676,4.56535925 1.54867209,4.41040882 1.87260534,4.54422085 L2.99865383,5.00937481 C3.51406885,5.22228512 4.25711902,5.06966765 4.6474328,4.6793639 C5.0769562,4.24985154 5.22476337,3.51278537 5.01089648,2.99628524 L4.54464626,1.87026568 C4.41032465,1.54587169 4.55776044,1.17668711 4.88998257,1.03902691 L7.27703974,0.0499213833 C7.60208533,-0.0847651253 7.97492394,0.0701264242 8.10936326,0.39483114 L8.57669778,1.52356139 C8.79060618,2.0402039 9.4238513,2.4590254 9.97572104,2.4590254 C10.5830298,2.4590254 11.208938,2.04130489 11.4233022,1.52356139 L11.8906367,0.39483114 C12.0252707,0.0696562327 12.3910131,-0.0877388098 12.7235915,0.0499213833 L15.113209,1.03902691 C15.4386032,1.17371342 15.593304,1.54634076 15.4591766,1.87026568 L14.9959607,2.98895705 C14.7808728,3.50840607 14.9317333,4.2547181 15.3220471,4.64502184 C15.7515705,5.07453421 16.4856692,5.22345743 17.0129502,5.00498905 L18.132209,4.5412465 C18.4567675,4.40677215 18.8259049,4.55462739 18.9633311,4.88755364 L19.9507551,7.27966994 C20.0852127,7.60540444 19.9301287,7.97879871 19.6054157,8.11323457 L18.4766564,8.58055709 C17.9600006,8.79445999 17.5411684,9.42599206 17.5411684,9.97581125 C17.5411684,10.5808634 17.9588996,11.2050842 18.4766564,11.4194429 L19.6054157,11.8867654 C19.9305989,12.021396 20.0878147,12.3871289 19.9499134,12.7196988 Z M10,5 C7.23857625,5 5,7.23857625 5,10 C5,12.7614237 7.23857625,15 10,15 C12.7614237,15 15,12.7614237 15,10 C15,8.67391755 14.4732158,7.40214799 13.5355339,6.46446609 C12.597852,5.5267842 11.3260824,5 10,5 L10,5 L10,5 L10,5 L10,5 Z M10,12.5 C8.61928813,12.5 7.5,11.3807119 7.5,10 C7.5,8.61928813 8.61928813,7.5 10,7.5 C11.3807119,7.5 12.5,8.61928813 12.5,10 C12.5,10.6630412 12.2366079,11.298926 11.767767,11.767767 C11.298926,12.2366079 10.6630412,12.5 10,12.5 L10,12.5 L10,12.5 L10,12.5 L10,12.5 Z" id="Settings-#1-Icon"></path>
                        </g>
                    </g>
                </g>
            </g>
        </g>
    </g>
</svg>