<?xml version="1.0" encoding="UTF-8"?>
<svg width="20px" height="18px" viewBox="0 0 20 18" version="1.1" xmlns="http://www.w3.org/2000/svg" xmlns:xlink="http://www.w3.org/1999/xlink">
    <!-- Generator: Sketch 42 (36781) - http://www.bohemiancoding.com/sketch -->
    <title>Mail Icon</title>
    <desc>Created with Sketch.</desc>
    <defs></defs>
    <g id="App" stroke="none" stroke-width="1" fill="none" fill-rule="evenodd">
        <g id="Orion-App-/-Requests-/-New---Step-1.1" transform="translate(-50.000000, -310.000000)" fill="#fff">
            <g id="//-SIDEBAR---full" transform="translate(0.000000, 80.000000)">
                <g id="::-menu" transform="translate(50.000000, 50.000000)">
                    <g id="::-sms" transform="translate(0.000000, 179.000000)">
                        <g id="::-icon-message" transform="translate(0.000000, 1.000000)">
                            <path d="M17.49125,17.7500153 L2.50875,17.7500153 C1.12718197,17.7486538 0.00618853682,16.6315702 0,15.2500153 L0,2.75001533 C-4.07044281e-06,2.08545529 0.264588815,1.44824087 0.735323928,0.979147583 C1.20605904,0.510054298 1.84419402,0.247689374 2.50875,0.250015334 L17.49125,0.250015334 C18.872818,0.251376853 19.9938115,1.3684605 20,2.75001533 L20,15.2500153 C20.0000041,15.9145754 19.7354112,16.5517898 19.2646761,17.0208831 C18.793941,17.4899764 18.155806,17.7523413 17.49125,17.7500153 L17.49125,17.7500153 L17.49125,17.7500153 Z M17.5,15.2500153 L17.5,4.58876533 L11.31875,10.9512653 C10.9670343,11.3035387 10.4896706,11.5014907 9.991875,11.5014907 C9.4940794,11.5014907 9.01671571,11.3035387 8.665,10.9512653 L2.5,4.60376533 L2.5,15.2500153 L17.5,15.2500153 L17.5,15.2500153 L17.5,15.2500153 Z M15.78625,2.75001533 L4.19875,2.75001533 L9.9925,8.72376533 L15.78625,2.75001533 L15.78625,2.75001533 Z" id="Mail-Icon"></path>
                        </g>
                    </g>
                </g>
            </g>
        </g>
    </g>
</svg>
