<?xml version="1.0" encoding="iso-8859-1"?>
<!-- Generator: Adobe Illustrator 19.0.0, SVG Export Plug-In . SVG Version: 6.00 Build 0)  -->
<svg version="1.1" id="Capa_1" xmlns="http://www.w3.org/2000/svg" xmlns:xlink="http://www.w3.org/1999/xlink" x="0px" y="0px"
	 viewBox="0 0 512.001 512.001" style="enable-background:new 0 0 512.001 512.001;" xml:space="preserve">
<g>
	<g>
		<path d="M473.513,391.295V15c0-8.284-6.716-15-15-15H53.487c-8.284,0-15,6.716-15,15v376.295c0,8.284,6.716,15,15,15h237.024
			l101.312,101.312c2.929,2.93,6.768,4.394,10.606,4.394s7.678-1.465,10.606-4.394l55.681-55.68
			c2.813-2.813,4.394-6.628,4.394-10.606c0-3.978-1.58-7.794-4.394-10.606l-24.419-24.419h14.215
			C466.797,406.295,473.513,399.579,473.513,391.295z M275.615,315.222l17.651,2.819l-14.56,14.56L275.615,315.222z M402.43,475.787
			L290.188,363.544l6.626-6.626L409.057,469.16L402.43,475.787z M430.271,447.947L318.028,335.705l6.627-6.627L436.898,441.32
			L430.271,447.947z M414.299,376.295l-79.037-79.037c-2.235-2.235-5.119-3.707-8.24-4.206l-67.502-10.781c-0.003,0-0.006,0-0.006,0
			c-1.131-0.271-2.302-0.43-3.512-0.43h-117.06c-8.284,0-15,6.716-15,15s6.716,15,15,15h105.6l9.665,54.332
			c0.538,3.023,1.991,5.809,4.162,7.979l2.144,2.144H68.487V30h375.025v346.295H414.299z"/>
	</g>
</g>
<g>
	<g>
		<path d="M373.058,94.454H138.941c-8.284,0-15,6.716-15,15s6.716,15,15,15h234.117c8.284,0,15-6.716,15-15
			S381.342,94.454,373.058,94.454z"/>
	</g>
</g>
<g>
	<g>
		<path d="M373.058,156.916H138.941c-8.284,0-15,6.716-15,15s6.716,15,15,15h234.117c8.284,0,15-6.716,15-15
			S381.342,156.916,373.058,156.916z"/>
	</g>
</g>
<g>
	<g>
		<path d="M373.058,219.378H138.941c-8.284,0-15,6.716-15,15s6.716,15,15,15h234.117c8.284,0,15-6.716,15-15
			S381.342,219.378,373.058,219.378z"/>
	</g>
</g>
<g>
</g>
<g>
</g>
<g>
</g>
<g>
</g>
<g>
</g>
<g>
</g>
<g>
</g>
<g>
</g>
<g>
</g>
<g>
</g>
<g>
</g>
<g>
</g>
<g>
</g>
<g>
</g>
<g>
</g>
</svg>
